<?xml version="1.0" encoding="UTF-8"?><svg id="a" xmlns="http://www.w3.org/2000/svg" viewBox="0 0 890.56338 200"><defs><style>.b{fill:#326ce0;}.b,.c{stroke-width:0px;}.c{fill:#fff;}</style></defs><path class="b" d="m100.00002,80h-20.00002V0h40v60.00002c0,11.04568-8.9543,19.99998-19.99998,19.99998Z"/><path class="b" d="m120,200h-40v-60.00002c0-11.04568,8.9543-19.99998,19.99998-19.99998h20.00002v80Z"/><path class="b" d="m80,99.99998v20.00002s-80,0-80,0v-40h60.00002c11.04568,0,19.99998,8.9543,19.99998,19.99998Z"/><path class="c" d="m200.00869,79.96484V20.04492h16.43555c6.56152,0,11.96973,1.25586,16.22168,3.76562,4.25,2.51172,7.41699,6.00781,9.50098,10.48633,2.08301,4.48047,3.125,9.74609,3.125,15.79297,0,5.93555-1.04199,11.14258-3.125,15.62305-2.08398,4.48047-5.25098,7.97461-9.50098,10.48633-4.25195,2.51172-9.66016,3.76562-16.22168,3.76562h-16.43555Zm7.3623-6.84766h9.33008c4.62207,0,8.45996-.98438,11.51367-2.95312,3.05176-1.96875,5.34961-4.69336,6.89062-8.17578,1.54102-3.48047,2.31055-7.47461,2.31055-11.98438,0-4.50586-.76953-8.48633-2.31055-11.93945s-3.83887-6.17773-6.89062-8.17578c-3.05371-1.99609-6.8916-2.99609-11.51367-2.99609h-9.33008v46.22461Z"/><path class="c" d="m274.16396,80.99219c-3.70996,0-6.99121-.89844-9.84375-2.69727-2.85449-1.79688-5.08008-4.36523-6.67676-7.70312-1.59863-3.33789-2.39746-7.34766-2.39746-12.02734,0-4.84961.82715-8.92969,2.48242-12.24023,1.65527-3.30859,3.95117-5.83398,6.89062-7.57617,2.93945-1.74023,6.2627-2.61133,9.97266-2.61133,2.51074,0,4.67871.45898,6.50586,1.37109,1.8252.91211,3.35156,2.08398,4.5791,3.50977,1.22656,1.42578,2.12598,2.93945,2.69727,4.53516v-8.38867h6.84766v42.80078h-7.10449v-8.2168c-.57129,1.93945-1.58398,3.60938-3.03906,5.00586-1.45508,1.40039-3.13965,2.45508-5.05078,3.16797-1.91211.71289-3.86621,1.07031-5.86328,1.07031Zm1.02734-6.50586c2.73926,0,5.06348-.72656,6.97656-2.18359,1.91113-1.45508,3.36621-3.38086,4.36523-5.77734.99805-2.39648,1.49805-5.05078,1.49805-7.96094,0-4.73633-1.12793-8.58789-3.38086-11.55469-2.25586-2.9668-5.49316-4.45117-9.71582-4.45117-2.79688,0-5.12305.69922-6.97656,2.0957-1.85547,1.40039-3.23926,3.29688-4.15137,5.69336-.91406,2.39648-1.37012,5.08008-1.37012,8.04688s.45605,5.66406,1.37012,8.08789c.91211,2.42578,2.32422,4.36523,4.2373,5.82031,1.91113,1.45703,4.29297,2.18359,7.14746,2.18359Z"/><path class="c" d="m310.06435,79.96484v-42.80078h7.19043v8.04688c.28516-1.02734.94141-2.25391,1.96875-3.67969s2.53906-2.68164,4.53711-3.76758c1.99707-1.08203,4.59277-1.62695,7.78906-1.62695,4.16504,0,7.60449,1.3418,10.31543,4.02344,2.70996,2.68359,4.06543,6.5918,4.06543,11.72852v28.07617h-7.19043v-27.04883c0-3.70898-.88477-6.34766-2.65332-7.91797-1.76953-1.57031-4.08105-2.35547-6.93359-2.35547-3.9375,0-6.90527,1.3418-8.90234,4.02344-1.99805,2.68359-2.99609,6.07812-2.99609,10.1875v23.11133h-7.19043Z"/><path class="c" d="m374.58779,80.99219c-2.85449,0-5.56445-.61328-8.13184-1.83984-2.56836-1.22656-4.65234-2.92383-6.24902-5.09375-1.59863-2.16797-2.39648-4.65039-2.39648-7.44727h7.7041c0,1.76953.51367,3.24023,1.54004,4.4082,1.02734,1.16992,2.28223,2.04102,3.7666,2.61133,1.4834.57031,2.93848.85547,4.36621.85547,2.85254,0,5.13574-.51367,6.84766-1.54102s2.56836-2.5957,2.56836-4.70703c0-1.88477-.62891-3.29688-1.88379-4.23828-1.25586-.94141-2.85449-1.6543-4.79297-2.13867-1.94141-.48438-4.02344-.92773-6.24902-1.32812-2.22559-.39844-4.30957-.96875-6.24902-1.71094-1.94043-.74219-3.53906-1.88477-4.79395-3.42383-1.25586-1.54102-1.88281-3.68164-1.88281-6.41992,0-2.11133.56934-4.13867,1.71191-6.07812,1.14062-1.93945,2.86719-3.55273,5.17871-4.83594,2.31152-1.28516,5.20703-1.92773,8.68848-1.92773,4.16504,0,7.46094.67188,9.88672,2.01172,2.4248,1.3418,4.16504,2.96875,5.22168,4.88086,1.05566,1.91211,1.58398,3.75195,1.58398,5.51953h-7.3623c0-1.42578-.7998-2.76562-2.39648-4.02148-1.59863-1.25586-3.9375-1.88477-7.01953-1.88477-2.7959,0-4.87891.55664-6.24805,1.66992-1.37012,1.11328-2.05469,2.58203-2.05469,4.4082,0,1.59766.62695,2.82422,1.88281,3.68164,1.25488.85547,2.86816,1.52734,4.83691,2.01172s4.05078.9707,6.24902,1.45508c2.19531.48438,4.2793,1.16992,6.24805,2.05273,1.96875.88672,3.58105,2.14062,4.83691,3.76758,1.25391,1.62695,1.88281,3.80859,1.88281,6.54883,0,2.2832-.61328,4.39453-1.83984,6.33398-1.22852,1.94141-3.11133,3.49609-5.65039,4.66406-2.53906,1.16992-5.80664,1.75586-9.80078,1.75586Z"/><path class="c" d="m404.45302,79.96484V19.01758h7.19043v36.46484l18.31836-18.31836h8.90234l-17.54785,17.89062,18.91797,24.91016h-9.07422l-15.49316-20.37305-4.02344,3.9375v16.43555h-7.19043Z"/><path class="c" d="m464.81728,81.07812c-3.5957,0-6.93359-.89844-10.01562-2.69727-3.08105-1.79688-5.56348-4.37891-7.44629-7.74609s-2.8252-7.33203-2.8252-11.89844c0-4.67969.94238-8.70117,2.8252-12.07031,1.88281-3.36523,4.36523-5.96289,7.44629-7.78906,3.08203-1.82617,6.41992-2.74023,10.01562-2.74023,3.65039,0,6.94727.75781,9.88672,2.26953s5.27734,3.85156,7.01953,7.01953c1.74023,3.16602,2.61133,7.23242,2.61133,12.19727v2.6543h-32.69922c.22656,4.10742,1.42578,7.51953,3.59375,10.22852,2.16797,2.71094,5.30859,4.06641,9.41602,4.06641,2.56836,0,4.9082-.59961,7.01953-1.79688,2.11133-1.19922,3.76758-2.88281,4.96484-5.05078l6.33398,2.56836c-3.53906,7.18945-9.58594,10.78516-18.14648,10.78516Zm-.17188-38.43555c-3.48047,0-6.26367,1.07031-8.3457,3.21094-2.08301,2.14062-3.46582,4.83594-4.15039,8.08984h24.99414c0-1.59766-.4707-3.26758-1.41211-5.00781s-2.32617-3.22461-4.15234-4.45117-4.13672-1.8418-6.93359-1.8418Z"/><path class="c" d="m200.00869,179.96484v-59.91992h35.09668v6.84766h-27.56348v18.83203h22.3418v6.84766h-22.3418v27.39258h-7.5332Z"/><path class="c" d="m260.43349,180.99219c-3.70996,0-6.99121-.89844-9.84375-2.69727-2.85449-1.79688-5.08008-4.36523-6.67676-7.70312-1.59863-3.33789-2.39746-7.34766-2.39746-12.02734,0-4.84961.82715-8.92969,2.48242-12.24023,1.65527-3.30859,3.95117-5.83398,6.89062-7.57617,2.93945-1.74023,6.2627-2.61133,9.97266-2.61133,2.51074,0,4.67871.45898,6.50586,1.37109,1.8252.91211,3.35156,2.08398,4.5791,3.50977,1.22656,1.42578,2.12598,2.93945,2.69727,4.53516v-8.38867h6.84766v42.80078h-7.10449v-8.2168c-.57129,1.93945-1.58398,3.60938-3.03906,5.00586-1.45508,1.40039-3.13965,2.45508-5.05078,3.16797-1.91211.71289-3.86621,1.07031-5.86328,1.07031Zm1.02734-6.50586c2.73926,0,5.06348-.72656,6.97656-2.18359,1.91113-1.45508,3.36621-3.38086,4.36523-5.77734.99805-2.39648,1.49805-5.05078,1.49805-7.96094,0-4.73633-1.12793-8.58789-3.38086-11.55469-2.25586-2.9668-5.49316-4.45117-9.71582-4.45117-2.79688,0-5.12305.69922-6.97656,2.0957-1.85547,1.40039-3.23926,3.29688-4.15137,5.69336-.91406,2.39648-1.37012,5.08008-1.37012,8.04688s.45605,5.66406,1.37012,8.08789c.91211,2.42578,2.32422,4.36523,4.2373,5.82031,1.91113,1.45703,4.29297,2.18359,7.14746,2.18359Z"/><path class="c" d="m296.33388,179.96484v-42.80078h7.19043v8.04688c.28516-1.02734.94141-2.25391,1.96875-3.67969s2.53906-2.68164,4.53711-3.76758c1.99707-1.08203,4.59277-1.62695,7.78906-1.62695,3.25293,0,6.0918.84375,8.51758,2.52539,2.4248,1.68555,4.12207,4.15234,5.09375,7.4043v-.16992c.28418-1.02734.99707-2.3125,2.13965-3.85156,1.14062-1.54102,2.78223-2.91211,4.92188-4.10938,2.13965-1.19922,4.80664-1.79883,8.00391-1.79883,4.16504,0,7.60352,1.3418,10.31445,4.02344,2.70996,2.68359,4.06641,6.5918,4.06641,11.72852v28.07617h-7.19043v-27.04883c0-3.70898-.88574-6.34766-2.6543-7.91797-1.76953-1.57031-4.08008-2.35547-6.93359-2.35547-3.9375,0-6.90527,1.3418-8.90234,4.02344-1.99805,2.68359-2.99609,6.07812-2.99609,10.1875v23.11133h-7.19043v-27.04883c0-3.70898-.88477-6.34766-2.65332-7.91797-1.76953-1.57031-4.08105-2.35547-6.93359-2.35547-3.9375,0-6.90527,1.3418-8.90234,4.02344-1.99805,2.68359-2.99609,6.07812-2.99609,10.1875v23.11133h-7.19043Z"/><path class="c" d="m379.15908,129.0332c-1.37012,0-2.55469-.5-3.55273-1.49805-.99902-.99805-1.49805-2.1543-1.49805-3.4668,0-1.36914.49902-2.55273,1.49805-3.55273.99805-.99805,2.18262-1.49805,3.55273-1.49805,1.31152,0,2.45312.5,3.42383,1.49805.96973,1,1.45508,2.18359,1.45508,3.55273,0,1.3125-.48535,2.46875-1.45508,3.4668-.9707.99805-2.1123,1.49805-3.42383,1.49805Zm-3.68066,50.93164v-42.80078h7.19043v42.80078h-7.19043Z"/><path class="c" d="m397.57998,179.96484v-60.94727h7.19043v60.94727h-7.19043Z"/><path class="c" d="m423.12295,129.0332c-1.37012,0-2.55469-.5-3.55273-1.49805-.99902-.99805-1.49805-2.1543-1.49805-3.4668,0-1.36914.49902-2.55273,1.49805-3.55273.99805-.99805,2.18262-1.49805,3.55273-1.49805,1.31152,0,2.45312.5,3.42383,1.49805.96973,1,1.45508,2.18359,1.45508,3.55273,0,1.3125-.48535,2.46875-1.45508,3.4668-.9707.99805-2.1123,1.49805-3.42383,1.49805Zm-3.68066,50.93164v-42.80078h7.19043v42.80078h-7.19043Z"/><path class="c" d="m458.88564,181.07812c-3.5957,0-6.93359-.89844-10.01465-2.69727-3.08203-1.79688-5.56445-4.37891-7.44727-7.74609s-2.8252-7.33203-2.8252-11.89844c0-4.67969.94238-8.70117,2.8252-12.07031,1.88281-3.36523,4.36523-5.96289,7.44727-7.78906,3.08105-1.82617,6.41895-2.74023,10.01465-2.74023,3.65039,0,6.94727.75781,9.88672,2.26953s5.27734,3.85156,7.01953,7.01953c1.74023,3.16602,2.61133,7.23242,2.61133,12.19727v2.6543h-32.69922c.22656,4.10742,1.42578,7.51953,3.59473,10.22852,2.16797,2.71094,5.30762,4.06641,9.41504,4.06641,2.56836,0,4.9082-.59961,7.01953-1.79688,2.11133-1.19922,3.76758-2.88281,4.96484-5.05078l6.33398,2.56836c-3.53906,7.18945-9.58594,10.78516-18.14648,10.78516Zm-.17188-38.43555c-3.48047,0-6.2627,1.07031-8.34473,3.21094-2.08398,2.14062-3.4668,4.83594-4.15137,8.08984h24.99414c0-1.59766-.4707-3.26758-1.41211-5.00781s-2.32617-3.22461-4.15234-4.45117-4.13672-1.8418-6.93359-1.8418Z"/><path class="c" d="m507.21377,180.99219c-3.71094,0-6.99219-.89844-9.84375-2.69727-2.85547-1.79688-5.08203-4.36523-6.67578-7.70312-1.60156-3.33789-2.39844-7.34766-2.39844-12.02734,0-4.84961.82812-8.92969,2.48438-12.24023,1.65234-3.30859,3.94922-5.83398,6.89062-7.57617,2.9375-1.74023,6.26172-2.61133,9.97266-2.61133,2.50781,0,4.67578.45898,6.50391,1.37109,1.82422.91211,3.35156,2.08398,4.57812,3.50977s2.125,2.93945,2.69922,4.53516v-8.38867h6.84766v42.80078h-7.10547v-8.2168c-.57031,1.93945-1.58203,3.60938-3.03906,5.00586-1.45703,1.40039-3.14062,2.45508-5.05078,3.16797-1.91406.71289-3.86719,1.07031-5.86328,1.07031Zm1.02734-6.50586c2.73828,0,5.0625-.72656,6.97656-2.18359,1.91016-1.45508,3.36719-3.38086,4.36719-5.77734.99609-2.39648,1.49609-5.05078,1.49609-7.96094,0-4.73633-1.12891-8.58789-3.38281-11.55469s-5.49219-4.45117-9.71484-4.45117c-2.79688,0-5.12109.69922-6.97656,2.0957-1.85547,1.40039-3.23828,3.29688-4.15234,5.69336-.91016,2.39648-1.36719,5.08008-1.36719,8.04688s.45703,5.66406,1.36719,8.08789c.91406,2.42578,2.32812,4.36523,4.23828,5.82031,1.91016,1.45703,4.29297,2.18359,7.14844,2.18359Z"/><path class="c" d="m560.03799,180.99219c-3.71094,0-7.03516-.87109-9.97266-2.61133-2.93945-1.74023-5.23633-4.2793-6.89062-7.61719-1.65625-3.33984-2.48242-7.4043-2.48242-12.19922,0-4.67773.79688-8.6875,2.39648-12.02734,1.5957-3.33789,3.82227-5.90625,6.67578-7.70312s6.13477-2.69727,9.84375-2.69727c1.99805,0,3.95117.35742,5.86523,1.07031,1.91016.71484,3.59375,1.75586,5.04883,3.125,1.45703,1.36914,2.46875,3.05273,3.03906,5.05078v-26.36523h7.19141v50.16211c0,1.71094.36914,2.92383,1.11328,3.63672.74023.71484,2.16797.84375,4.2793.38672v5.82031c-.57031.3418-1.18555.59961-1.83984.76953-.6582.17188-1.52734.25781-2.61133.25781-2.22656,0-4.08008-.65625-5.56445-1.96875s-2.22461-3.48047-2.22461-6.50586c-.62891,1.54102-1.54102,3.03906-2.74023,4.49414-1.19727,1.45508-2.72461,2.64062-4.58008,3.55273-1.85352.91211-4.03711,1.36914-6.54688,1.36914Zm.3418-6.41992c4.22266,0,7.46094-1.49805,9.71484-4.49414s3.38086-6.83398,3.38086-11.51367c0-2.91016-.5-5.57617-1.49609-8.00391-1-2.42383-2.45508-4.34961-4.36719-5.77734-1.91211-1.42578-4.23633-2.14062-6.97656-2.14062-2.85352,0-5.23633.72852-7.14648,2.18359-1.91211,1.45508-3.32617,3.39648-4.23828,5.82031-.91211,2.42578-1.36914,5.12305-1.36914,8.08984s.45703,5.64844,1.36914,8.04688c.91211,2.39648,2.29688,4.29492,4.15234,5.69141,1.85352,1.39844,4.17969,2.09766,6.97656,2.09766Z"/><path class="c" d="m606.83681,179.96484l-15.49414-42.80078h7.19141l12.92383,35.61133,12.92578-35.61133h6.84961l-15.49414,42.80078h-8.90234Z"/><path class="c" d="m657.24697,180.99219c-3.53906,0-6.84766-.8418-9.92969-2.52539-3.08203-1.68164-5.56445-4.19531-7.44727-7.5332s-2.82422-7.46094-2.82422-12.36914c0-4.90625.94141-9.03125,2.82422-12.36914s4.36523-5.84766,7.44727-7.5332c3.08203-1.68164,6.39062-2.52539,9.92969-2.52539,3.53711,0,6.84766.84375,9.92969,2.52539,3.08203,1.68555,5.56445,4.19531,7.44727,7.5332s2.82422,7.46289,2.82422,12.36914c0,4.9082-.94141,9.03125-2.82422,12.36914s-4.36523,5.85156-7.44727,7.5332c-3.08203,1.68359-6.39258,2.52539-9.92969,2.52539Zm0-6.50586c4.2793,0,7.51758-1.39844,9.71484-4.19336,2.19727-2.79688,3.29688-6.70508,3.29688-11.72852,0-5.02148-1.09961-8.92969-3.29688-11.72656-2.19727-2.79492-5.43555-4.19531-9.71484-4.19531s-7.51953,1.40039-9.71484,4.19531c-2.19922,2.79688-3.29688,6.70508-3.29688,11.72656,0,5.02344,1.09766,8.93164,3.29688,11.72852,2.19531,2.79492,5.43555,4.19336,9.71484,4.19336Z"/><path class="c" d="m689.97744,179.96484v-60.94727h7.19141v36.46484l18.31836-18.31836h8.90234l-17.54883,17.89062,18.91797,24.91016h-9.07422l-15.49414-20.37305-4.02148,3.9375v16.43555h-7.19141Z"/><path class="c" d="m749.14345,180.99219c-3.70898,0-6.99023-.89844-9.84375-2.69727-2.85352-1.79688-5.08008-4.36523-6.67578-7.70312-1.59961-3.33789-2.39648-7.34766-2.39648-12.02734,0-4.84961.82617-8.92969,2.48242-12.24023,1.6543-3.30859,3.95117-5.83398,6.89062-7.57617,2.9375-1.74023,6.26172-2.61133,9.97266-2.61133,2.50977,0,4.67773.45898,6.50391,1.37109s3.35352,2.08398,4.58008,3.50977,2.125,2.93945,2.69727,4.53516v-8.38867h6.84766v42.80078h-7.10547v-8.2168c-.57031,1.93945-1.58203,3.60938-3.03906,5.00586-1.45508,1.40039-3.13867,2.45508-5.04883,3.16797-1.91406.71289-3.86719,1.07031-5.86523,1.07031Zm1.02734-6.50586c2.74023,0,5.06445-.72656,6.97656-2.18359,1.91211-1.45508,3.36719-3.38086,4.36719-5.77734.99609-2.39648,1.49609-5.05078,1.49609-7.96094,0-4.73633-1.12695-8.58789-3.38086-11.55469s-5.49219-4.45117-9.71484-4.45117c-2.79688,0-5.12305.69922-6.97656,2.0957-1.85547,1.40039-3.24023,3.29688-4.15234,5.69336s-1.36914,5.08008-1.36914,8.04688.45703,5.66406,1.36914,8.08789c.91211,2.42578,2.32617,4.36523,4.23828,5.82031,1.91016,1.45703,4.29297,2.18359,7.14648,2.18359Z"/><path class="c" d="m800.9247,180.99219c-4.67969,0-7.99023-1.05469-9.92969-3.16797-1.94141-2.10938-2.91016-5.16406-2.91016-9.1582v-24.91016h-7.70312v-6.5918h1.96875c2.33789,0,3.87891-.38477,4.62109-1.1543.74219-.77148,1.11328-2.38281,1.11328-4.83789v-4.87891h7.18945v10.95703h11.04297v6.50586h-11.04297v24.91016c0,2.2832.54297,3.88086,1.62695,4.79297,1.08398.91406,2.68164,1.36914,4.79297,1.36914.57031,0,1.19922-.02734,1.88477-.08398.68359-.05664,1.36914-.14258,2.05469-.25781v5.82031c-1.54102.45703-3.11133.68555-4.70898.68555Z"/><path class="c" d="m833.95009,181.07812c-3.5957,0-6.93359-.89844-10.01562-2.69727-3.08203-1.79688-5.56445-4.37891-7.44727-7.74609s-2.82422-7.33203-2.82422-11.89844c0-4.67969.94141-8.70117,2.82422-12.07031,1.88281-3.36523,4.36523-5.96289,7.44727-7.78906s6.41992-2.74023,10.01562-2.74023c3.65039,0,6.94727.75781,9.88672,2.26953,2.9375,1.51172,5.27734,3.85156,7.01953,7.01953,1.74023,3.16602,2.60938,7.23242,2.60938,12.19727v2.6543h-32.69922c.22852,4.10742,1.42578,7.51953,3.5957,10.22852,2.16797,2.71094,5.30664,4.06641,9.41602,4.06641,2.56836,0,4.9082-.59961,7.01953-1.79688,2.11133-1.19922,3.76562-2.88281,4.96484-5.05078l6.33398,2.56836c-3.53906,7.18945-9.58789,10.78516-18.14648,10.78516Zm-.17188-38.43555c-3.48047,0-6.26367,1.07031-8.3457,3.21094-2.08398,2.14062-3.4668,4.83594-4.15234,8.08984h24.99609c0-1.59766-.4707-3.26758-1.41211-5.00781s-2.32617-3.22461-4.15234-4.45117-4.13867-1.8418-6.93359-1.8418Z"/><path class="c" d="m865.73916,179.96484v-42.80078h7.19141v8.47461c.56836-1.54102,1.38281-3.03906,2.43945-4.49414,1.05469-1.45508,2.50977-2.65234,4.36523-3.59375,1.85352-.94141,4.23633-1.41406,7.14648-1.41406.45703,0,1.08398.04297,1.88477.12891.79688.08594,1.39648.1582,1.79688.21484v6.67578c-.85547-.28516-1.94141-.49805-3.25195-.64062-1.31445-.14258-2.51172-.09961-3.5957.12695-3.48242.68555-6.15039,2.19727-8.00391,4.53711-1.85547,2.3418-2.78125,5.56445-2.78125,9.67383v23.11133h-7.19141Z"/></svg>