<svg id="Layer_1" data-name="Layer 1" xmlns="http://www.w3.org/2000/svg" viewBox="0 0 452.58 89.6"><defs><style>.cls-1{fill:#003851;}.cls-2{fill:#fff;}.cls-3{fill:#abd5d9;}.cls-4{fill:#88c3c9;}.cls-5{fill:#5ca3ab;}</style></defs><title>Artboard 1 copy 7</title><path class="cls-1" d="M7.08,26.91A19.82,19.82,0,1,0,26.9,7.09,19.83,19.83,0,0,0,7.08,26.91"/><rect class="cls-2" x="18.42" y="33.28" width="16.95" height="3.4"/><path class="cls-2" d="M29.1,13.89a.31.31,0,0,0-.21.07.4.4,0,0,0,.07-.21.4.4,0,1,0-.8,0,.59.59,0,0,0,0,.14H27.3v-.8a.57.57,0,0,0,.15,0,.4.4,0,0,0,.4-.4.39.39,0,0,0-.4-.4.41.41,0,0,0-.22.07.41.41,0,0,0,.07-.22.39.39,0,0,0-.4-.4.4.4,0,0,0-.4.4.41.41,0,0,0,.07.22.38.38,0,0,0-.21-.07.39.39,0,0,0-.4.4.4.4,0,0,0,.4.4.58.58,0,0,0,.14,0v.8h-.89a.32.32,0,0,0,0-.14.4.4,0,1,0-.8,0,.4.4,0,0,0,.07.21.32.32,0,0,0-.22-.07.4.4,0,0,0,0,.8.38.38,0,0,0,.22-.07.38.38,0,0,0-.07.21.4.4,0,1,0,.8,0,.35.35,0,0,0,0-.14h.89v1a2,2,0,0,0,.4,4,2,2,0,0,0,.4-4v-1h.88a.68.68,0,0,0,0,.14.4.4,0,1,0,.8,0,.32.32,0,0,0-.08-.21.44.44,0,0,0,.22.07.4.4,0,0,0,0-.8"/><path class="cls-2" d="M37.38,25.91s-2.77-.15-3.07,4.18a14,14,0,0,0-2.37-.86,11.45,11.45,0,0,1,2.78-3.91,3.77,3.77,0,0,0,.34-3.2,2.38,2.38,0,0,1,2.32,3.79m-7.14,2.95-.26,0a21.12,21.12,0,0,0-2.16-.2c1.91-3.72.34-4.89-.3-5.1l.15-1.36c1-.36,1.88-1.18,3.09-1.18a2.36,2.36,0,0,1,2.17,3.7s-2.48-.59-2.69,4.18M26,28.62a20.92,20.92,0,0,0-2.15.2l-.26,0c-.21-4.77-2.69-4.18-2.69-4.18A2.35,2.35,0,0,1,23,21c1.22,0,2.05.82,3.1,1.18l.15,1.36c-.65.21-2.21,1.38-.31,5.1m-6.49,1.47c-.29-4.33-3.07-4.18-3.07-4.18a2.39,2.39,0,0,1,2.33-3.79,3.81,3.81,0,0,0,.33,3.2,11.45,11.45,0,0,1,2.78,3.91,14.36,14.36,0,0,0-2.37.86m15-9.12a3.33,3.33,0,0,0-2.86-1.5c-2.16,0-3.33,1.56-4.75,1.68-1.42-.12-2.58-1.68-4.75-1.68A3.35,3.35,0,0,0,19.29,21c-5.6-1.63-5.63,4.45-4.65,5.38,0,0,3.78,3.29,3.78,5v.09h17v-.09c0-1.74,3.79-5,3.79-5,1-.93.95-7-4.66-5.38"/><path class="cls-1" d="M135.24,39.78h17.53v4.78h-12v8.63h10.1V58h-10.1V70.3h-5.54Z"/><path class="cls-1" d="M165.36,56.55h.73v-.3c0-2.88-1.8-3.87-4.21-3.87a11.75,11.75,0,0,0-6,2.1l-2.06-3.91a14.8,14.8,0,0,1,8.6-2.71c5.76,0,9.11,3.19,9.11,8.73V70.3h-5V68.49a13.07,13.07,0,0,1,.09-1.54h-.09a7.1,7.1,0,0,1-6.66,3.87c-3.91,0-7.44-2.45-7.44-6.84C152.38,57,161.79,56.55,165.36,56.55Zm-4.17,10c2.88,0,4.94-3.09,4.94-5.76v-.51h-.94c-2.79,0-7.31.38-7.31,3.43C157.88,65.18,159,66.56,161.19,66.56Z"/><path class="cls-1" d="M176.15,48.38h5.24v2.54a13,13,0,0,1-.09,1.5h.09a8.29,8.29,0,0,1,7.13-4.56c3.36,0,5.5,1.55,6.41,4.52H195a8.57,8.57,0,0,1,7.48-4.52c4.56,0,7.18,2.58,7.18,8.34V70.3h-5.46V57.23c0-2.49-.47-4.38-3-4.38-2.79,0-4.64,2.23-5.28,5a11.5,11.5,0,0,0-.26,2.83V70.3H190.2V57.23c0-2.36-.39-4.38-3-4.38-2.83,0-4.68,2.23-5.37,5a11.66,11.66,0,0,0-.26,2.79V70.3h-5.45Z"/><path class="cls-1" d="M214.61,39.78H220v4.86h-5.41Zm0,8.6h5.46V70.3h-5.46Z"/><path class="cls-1" d="M225,39.78h5.41V62.65c0,2.41.82,3,2.24,3a7,7,0,0,0,.81,0v4.78a13.22,13.22,0,0,1-1.72.12c-3,0-6.74-.77-6.74-7Z"/><path class="cls-1" d="M236.74,39.78h5.41v4.86h-5.41Zm0,8.6h5.46V70.3h-5.46Z"/><path class="cls-1" d="M256.94,47.86c6.31,0,9.71,4.6,9.71,10.41,0,.64-.13,2.1-.13,2.1H251.39a6.24,6.24,0,0,0,6.58,5.8,10.87,10.87,0,0,0,6.32-2.4l2.1,3.91a13.68,13.68,0,0,1-8.81,3.14c-7.26,0-11.77-5.25-11.77-11.48C245.81,52.59,250.4,47.86,256.94,47.86Zm4.21,8.77c-.09-3-1.94-4.55-4.34-4.55a5.11,5.11,0,0,0-5.25,4.55Z"/><path class="cls-1" d="M270.3,48.38h5.24v3.78c0,.82-.08,1.55-.08,1.55h.08c1-3.14,3.61-5.63,7-5.63a5.9,5.9,0,0,1,1,.09v5.37a9,9,0,0,0-1.29-.09,6.2,6.2,0,0,0-6,4.6,11.87,11.87,0,0,0-.47,3.57V70.3H270.3Z"/><path class="cls-1" d="M295.05,47.86c6.32,0,9.72,4.6,9.72,10.41,0,.64-.13,2.1-.13,2.1H289.51a6.23,6.23,0,0,0,6.57,5.8,10.83,10.83,0,0,0,6.32-2.4l2.11,3.91a13.68,13.68,0,0,1-8.81,3.14c-7.27,0-11.78-5.25-11.78-11.48C283.92,52.59,288.52,47.86,295.05,47.86Zm4.21,8.77c-.08-3-1.93-4.55-4.34-4.55a5.11,5.11,0,0,0-5.24,4.55Z"/><path class="cls-1" d="M309.36,53.07h-2.84V48.72h3V42.41h5.33v6.31h5v4.35h-5v8.5c0,3.61,2.84,4.13,4.34,4.13a4.85,4.85,0,0,0,1-.09v4.78a10.21,10.21,0,0,1-1.68.12c-3.05,0-9.11-.9-9.11-8.25Z"/><path class="cls-1" d="M324.4,63.77a9.19,9.19,0,0,0,6,2.4c1.54,0,2.88-.68,2.88-2,0-3.27-10.66-2.84-10.66-9.89,0-4.08,3.65-6.45,8.38-6.45,4.94,0,7.35,2.5,7.35,2.5l-2,4a8.33,8.33,0,0,0-5.38-1.89c-1.41,0-2.79.6-2.79,2,0,3.1,10.66,2.71,10.66,9.76,0,3.65-3.18,6.58-8.38,6.58a12.25,12.25,0,0,1-8.51-3.23Z"/><path class="cls-1" d="M342.15,39.78h5.46V50.36a17.89,17.89,0,0,1-.09,1.85h.09a8.43,8.43,0,0,1,7.56-4.35c4.86,0,7.61,2.54,7.61,8.34V70.3h-5.42v-13c0-2.66-.68-4.47-3.48-4.47A6.16,6.16,0,0,0,348,57.41a9.77,9.77,0,0,0-.34,2.83V70.3h-5.46Z"/><path class="cls-1" d="M367.24,48.38h5.46v13c0,2.66.69,4.47,3.4,4.47,3.95,0,6.14-3.48,6.14-7.39V48.38h5.46V70.3h-5.24V67.81a13.36,13.36,0,0,1,.09-1.55h-.09a8.46,8.46,0,0,1-7.61,4.56c-4.68,0-7.61-2.37-7.61-8.34Z"/><path class="cls-1" d="M393.33,63.77a9.19,9.19,0,0,0,6,2.4c1.55,0,2.88-.68,2.88-2,0-3.27-10.66-2.84-10.66-9.89,0-4.08,3.66-6.45,8.38-6.45,5,0,7.35,2.5,7.35,2.5l-2,4a8.32,8.32,0,0,0-5.37-1.89c-1.42,0-2.79.6-2.79,2,0,3.1,10.66,2.71,10.66,9.76,0,3.65-3.18,6.58-8.38,6.58a12.25,12.25,0,0,1-8.51-3.23Z"/><path class="cls-1" d="M420.83,47.86c6.32,0,9.72,4.6,9.72,10.41,0,.64-.13,2.1-.13,2.1H415.29a6.23,6.23,0,0,0,6.57,5.8,10.83,10.83,0,0,0,6.32-2.4l2.11,3.91a13.68,13.68,0,0,1-8.81,3.14c-7.27,0-11.78-5.25-11.78-11.48C409.7,52.59,414.3,47.86,420.83,47.86ZM425,56.63c-.08-3-1.93-4.55-4.34-4.55a5.11,5.11,0,0,0-5.24,4.55Z"/><path class="cls-1" d="M434.71,53.07h-2.84V48.72h3V42.41h5.33v6.31h5v4.35h-5v8.5c0,3.61,2.84,4.13,4.34,4.13a4.85,4.85,0,0,0,1-.09v4.78a10.21,10.21,0,0,1-1.68.12c-3.05,0-9.11-.9-9.11-8.25Z"/><path class="cls-3" d="M97.81,11a23.19,23.19,0,0,0-22,15.69,28,28,0,0,1,26.92,27.93q0,1.11-.09,2.22A23.18,23.18,0,0,0,97.81,11"/><path class="cls-4" d="M97.81,57.31a23.21,23.21,0,0,1-22-30.66h-1A27.94,27.94,0,1,0,102.69,56.8,23.76,23.76,0,0,1,97.81,57.31Z"/><path class="cls-5" d="M75.86,26.65a23.21,23.21,0,0,0,22,30.66,23.76,23.76,0,0,0,4.88-.51q.09-1.11.09-2.22A28,28,0,0,0,75.86,26.65"/></svg>