<?xml version="1.0" encoding="UTF-8"?><svg id="a" xmlns="http://www.w3.org/2000/svg" width="530.36" height="158.74" viewBox="0 0 530.36 158.74"><path d="M52.92,69.56c0,37.18,30.14,67.32,67.32,67.32,18.64,0,35.52-7.58,47.71-19.83l-13.32-13.32c-8.78,8.84-20.94,14.31-34.39,14.31-26.78,0-48.49-21.71-48.49-48.49,0-13.44,5.47-25.61,14.31-34.39l-13.32-13.32c-12.25,12.19-19.83,29.06-19.83,47.71" fill="#b8c7ca"/><rect x="100.6" y="84.75" width="39.3" height="7.88" fill="#133b71"/><path d="M125.36,39.79c-.19,0-.36.06-.5.18.09-.16.16-.32.16-.5,0-.52-.41-.93-.92-.93s-.92.41-.92.93c0,.12.02.24.06.33h-2.05v-1.85c.1.04.22.07.34.07.51,0,.93-.42.93-.92s-.42-.94-.93-.94c-.19,0-.36.07-.51.17.1-.14.17-.31.17-.49,0-.52-.41-.94-.92-.94s-.93.42-.93.94c0,.18.07.35.17.49-.15-.1-.32-.17-.5-.17-.51,0-.93.41-.93.94s.42.92.93.92c.13,0,.23-.03.34-.07v1.85h-2.06c.04-.09.06-.22.06-.33,0-.52-.41-.93-.92-.93s-.92.41-.92.93c0,.18.06.34.16.5-.15-.11-.31-.18-.51-.18-.5,0-.91.41-.91.93s.41.94.91.94c.21,0,.37-.08.51-.17-.1.14-.16.31-.16.5,0,.51.41.93.92.93s.92-.42.92-.93c0-.12-.02-.23-.06-.33h2.06v2.22c-2.17.43-3.83,2.35-3.83,4.65,0,2.63,2.14,4.74,4.75,4.74s4.73-2.11,4.73-4.74c0-2.29-1.63-4.21-3.8-4.65v-2.22h2.05c-.04.1-.06.21-.06.33,0,.51.42.93.92.93s.92-.42.92-.93c0-.19-.07-.36-.17-.5.16.09.32.17.51.17.51,0,.93-.42.93-.94s-.42-.93-.93-.93" fill="#133b71"/><path d="M144.54,67.66s-6.43-.34-7.11,9.7c-1.67-.79-3.51-1.47-5.5-2,1.7-4.79,6.45-9.06,6.45-9.06.92-1.01,1.78-4.2.78-7.42,7.63-.53,7.1,7.21,5.38,8.79M127.99,74.49c-.18-.03-.4-.05-.61-.08-1.6-.24-3.28-.39-5.01-.47,4.42-8.62.8-11.33-.7-11.83l.35-3.15c2.42-.82,4.35-2.72,7.17-2.72,6.99,0,6.58,6.9,5.02,8.57,0,0-5.75-1.37-6.23,9.67M118.12,73.95c-1.71.08-3.39.23-4.99.47-.21.03-.43.05-.62.08-.48-11.04-6.23-9.67-6.23-9.67-1.57-1.67-1.97-8.57,5.02-8.57,2.83,0,4.75,1.9,7.17,2.72l.36,3.15c-1.5.5-5.12,3.2-.72,11.83M103.07,77.36c-.68-10.04-7.11-9.7-7.11-9.7-1.72-1.58-2.23-9.32,5.39-8.79-.99,3.22-.15,6.41.77,7.42,0,0,4.75,4.27,6.44,9.06-1.98.54-3.82,1.21-5.49,2M137.9,56.22c-1.27-1.92-3.53-3.48-6.64-3.48-5.02,0-7.72,3.62-11.02,3.89-3.29-.27-5.98-3.89-11.02-3.89-3.1,0-5.35,1.56-6.63,3.48-12.99-3.77-13.04,10.32-10.78,12.46,0,0,8.77,7.64,8.77,11.68v.2h39.3v-.2c0-4.03,8.78-11.68,8.78-11.68,2.26-2.14,2.22-16.23-10.78-12.46" fill="#133b71"/><path d="M289.13,65.39c0,5.74,3.42,6.44,6.17,6.44.82,0,1.57-.12,1.57-.12v-4.36s-.35.04-.75.04c-1.3,0-2.04-.55-2.04-2.75v-20.9h-4.95v21.65ZM271.77,65.63c0-2.79,4.12-3.14,6.68-3.14h.86v.47c0,2.44-1.89,5.26-4.52,5.26-2.04,0-3.02-1.26-3.02-2.59M266.74,65.86c0,4.01,3.22,6.25,6.8,6.25,4.56,0,6.13-3.54,6.09-3.54h.08s-.08.63-.08,1.41v1.65h4.6v-12.53c0-5.07-3.06-7.97-8.33-7.97-4.75,0-7.86,2.47-7.86,2.47l1.89,3.58s2.63-1.92,5.5-1.92c2.2,0,3.85.9,3.85,3.54v.27h-.67c-3.26,0-11.86.43-11.86,6.8M258.34,71.64h4.99v-20.03h-4.99v20.03ZM258.34,48.18h4.95v-4.44h-4.95v4.44ZM236.85,61.62c0,5.81,4.24,10.49,10.88,10.49,5.38,0,8.25-3.26,8.25-3.26l-1.92-3.54s-2.51,2.55-5.89,2.55c-3.81,0-6.25-2.91-6.25-6.29s2.4-6.21,6.09-6.21c3.14,0,5.22,2.16,5.22,2.16l2.2-3.42s-2.48-2.99-7.7-2.99c-6.64,0-10.88,4.79-10.88,10.49M217.71,61.62c0-3.69,2.71-6.25,5.97-6.25s5.93,2.55,5.93,6.25-2.71,6.25-5.93,6.25-5.97-2.51-5.97-6.25M212.65,61.62c0,6.17,4.91,10.49,11.04,10.49s11-4.32,11-10.49-4.91-10.49-11.04-10.49-11,4.36-11,10.49M191.89,68.3s3.42,3.81,9.63,3.81c5.81,0,9.19-3.73,9.19-8.17,0-8.92-13.12-7.7-13.12-12.65,0-1.97,1.85-3.34,4.2-3.34,3.5,0,6.17,2.44,6.17,2.44l2.2-4.12s-2.83-2.99-8.33-2.99-9.35,3.46-9.35,8.09c0,8.56,13.16,7.7,13.16,12.69,0,2.28-1.93,3.38-4.05,3.38-3.93,0-6.95-2.95-6.95-2.95l-2.75,3.81Z" fill="#133b71"/><path d="M357.81,67.04c-3.22,0-5.03-2.59-5.03-6.09s1.69-5.58,4.71-5.58c2.71,0,4.95,1.22,4.95,5.78s-2.24,5.89-4.64,5.89M351.13,74.35l-1.49,3.81c1.93,1.02,4.6,1.73,7.11,1.73,5.22,0,10.57-2.59,10.57-9.47v-18.82h-4.68v1.53c0,.31.04.55.04.55h-.12s-1.57-2.55-5.93-2.55c-5.77,0-8.88,4.48-8.88,9.98s3.26,10.14,9,10.14c2.67,0,4.4-.94,5.58-2.71h.08s-.08.59-.08,1.06v1.18c0,3.58-2.59,4.87-5.66,4.87s-5.54-1.3-5.54-1.3M328.11,61.62c0-3.69,2.71-6.25,5.97-6.25s5.93,2.55,5.93,6.25-2.71,6.25-5.93,6.25-5.97-2.51-5.97-6.25M323.04,61.62c0,6.17,4.91,10.49,11.04,10.49s11-4.32,11-10.49-4.91-10.49-11.04-10.49-11,4.36-11,10.49M302.61,62.13h11.47v-3.38h-11.47v3.38Z" fill="#133b71"/><path d="M467.27,104.2c0,6.72,5.54,7.54,8.33,7.54.94,0,1.53-.12,1.53-.12v-4.36s-.35.08-.9.08c-1.37,0-3.97-.47-3.97-3.77v-7.78h4.56v-3.97h-4.56v-5.78h-4.87v5.78h-2.71v3.97h2.59v8.41ZM449.12,99.05c.47-2.59,2.24-4.17,4.79-4.17,2.2,0,3.89,1.45,3.97,4.17h-8.76ZM443.86,101.53c0,5.7,4.12,10.49,10.76,10.49,4.99,0,8.05-2.87,8.05-2.87l-1.93-3.58s-2.55,2.2-5.77,2.2c-2.99,0-5.7-1.81-6.01-5.3h13.83s.12-1.33.12-1.92c0-5.3-3.1-9.51-8.88-9.51s-10.17,4.32-10.17,10.49M435.57,111.54h4.99v-20.03h-4.99v20.03ZM435.57,88.09h4.95v-4.44h-4.95v4.44ZM420.13,111.54h4.99v-7.93c0-1.18.12-2.28.43-3.26.94-2.99,3.34-4.2,5.46-4.2.67,0,1.18.08,1.18.08v-4.91s-.43-.08-.9-.08c-3.06,0-5.46,2.28-6.36,5.15h-.08s.08-.67.08-1.41v-3.46h-4.79v20.03h0ZM402.22,99.05c.47-2.59,2.24-4.17,4.79-4.17,2.2,0,3.89,1.45,3.97,4.17h-8.76ZM396.96,101.53c0,5.7,4.12,10.49,10.76,10.49,4.99,0,8.05-2.87,8.05-2.87l-1.93-3.58s-2.55,2.2-5.77,2.2c-2.99,0-5.7-1.81-6.01-5.3h13.83s.12-1.33.12-1.92c0-5.3-3.1-9.51-8.88-9.51s-10.18,4.32-10.18,10.49M385.21,104.2c0,6.72,5.54,7.54,8.33,7.54.94,0,1.53-.12,1.53-.12v-4.36s-.35.08-.9.08c-1.38,0-3.97-.47-3.97-3.77v-7.78h4.56v-3.97h-4.56v-5.78h-4.87v5.78h-2.71v3.97h2.59v8.41ZM364.9,109.07s2.79,2.95,7.78,2.95,7.66-2.67,7.66-6.01c0-6.44-9.74-6.09-9.74-8.92,0-1.26,1.26-1.81,2.55-1.81,3.06,0,4.91,1.73,4.91,1.73l1.85-3.69s-2.2-2.28-6.72-2.28-7.66,2.16-7.66,5.89c0,6.44,9.74,6.05,9.74,9.04,0,1.18-1.22,1.81-2.63,1.81-3.26,0-5.46-2.2-5.46-2.2l-2.28,3.5h0ZM356.1,111.54h4.99v-20.03h-4.99v20.03ZM356.1,88.09h4.95v-4.44h-4.95v4.44ZM332.02,111.54h4.99v-9.19c0-.94.08-1.85.35-2.67.75-2.4,2.71-4.08,5.38-4.08s3.18,1.65,3.18,4.08v11.86h4.95v-12.89c0-5.3-2.51-7.62-6.95-7.62-4.05,0-6.25,2.47-7.11,4.16h-.08s.08-.63.08-1.38v-2.32h-4.79v20.05ZM321.53,111.54h4.99v-20.03h-4.99v20.03ZM321.53,88.09h4.95v-4.44h-4.95v4.44ZM285.66,111.54h4.99v-8.8c0-.9.04-1.81.24-2.55.63-2.55,2.32-4.6,4.91-4.6,2.36,0,2.71,1.85,2.71,4.01v11.94h4.99v-8.8c0-.94.04-1.81.24-2.59.59-2.51,2.28-4.56,4.83-4.56,2.32,0,2.75,1.73,2.75,4.01v11.94h4.99v-12.89c0-5.26-2.4-7.62-6.56-7.62-3.14,0-5.73,1.97-6.83,4.12h-.08c-.82-2.71-2.79-4.12-5.85-4.12s-5.54,2.2-6.52,4.16h-.08s.08-.63.08-1.38v-2.32h-4.79v20.03l-.02.02Z" fill="#133b71"/><path d="M193.03,83.64h9.98c5.03,0,8.6,2.59,8.6,7.19,0,2.59-1.26,4.83-3.38,5.97v.08c3.06.9,4.52,3.73,4.52,6.56,0,5.58-4.48,8.09-9.63,8.09h-10.1v-27.9h.01ZM203.01,95.03c2.2,0,3.46-1.57,3.46-3.58s-1.18-3.46-3.54-3.46h-4.83v7.03h4.91,0ZM203.52,107.17c2.59,0,4.05-1.69,4.05-4.05s-1.49-4.01-4.05-4.01h-5.42v8.05h5.42Z" fill="#133b71"/><path d="M225.79,91.02c6.13,0,11.04,4.36,11.04,10.49s-4.91,10.49-11,10.49-11.04-4.32-11.04-10.49,4.91-10.49,11-10.49ZM225.83,107.76c3.22,0,5.93-2.51,5.93-6.25s-2.71-6.25-5.93-6.25-5.97,2.55-5.97,6.25,2.71,6.25,5.97,6.25Z" fill="#133b71"/><path d="M240.19,83.64h4.95v20.9c0,2.2.75,2.75,2.04,2.75.39,0,.75-.04.75-.04v4.36s-.75.12-1.57.12c-2.75,0-6.17-.71-6.17-6.44v-21.65h0Z" fill="#133b71"/><path d="M251.91,83.64h4.95v4.44h-4.95v-4.44h0ZM251.91,91.5h4.99v20.04h-4.99v-20.04h0Z" fill="#133b71"/><path d="M269.77,115.54c3.07,0,5.66-1.3,5.66-4.87v-1.18c0-.47.08-1.06.08-1.06h-.08c-1.18,1.77-2.91,2.71-5.58,2.71-5.74,0-9-4.64-9-10.14s3.1-9.98,8.88-9.98c4.36,0,5.93,2.55,5.93,2.55h.12s-.04-.24-.04-.55v-1.53h4.68v18.82c0,6.88-5.34,9.47-10.57,9.47-2.51,0-5.19-.71-7.11-1.73l1.49-3.81s2.51,1.3,5.54,1.3ZM275.54,101.04c0-4.56-2.24-5.78-4.95-5.78-3.03,0-4.72,2.2-4.72,5.58s1.81,6.09,5.03,6.09c2.4,0,4.64-1.38,4.64-5.89Z" fill="#133b71"/></svg>